# xmcd
#
# Track frame offsets:
#	150
#	18451
#	32449
#	43379
#	60143
#	76007
#	91384
#	108147
#	127434
#	146108
#	164409
#	178407
#	189337
#	206101
#	221965
#	237342
#	254105
#	273392
#	303316
#
# Disc length: 4050 seconds
#
# Revision: 1
# Processed by: cddbd v1.5.2PL0 Copyright (c) Steve Scherf et al.
# Submitted via: audiograbber 1.83.01
#
DISCID=1e0fd013
DTITLE=Top Tunes Country Multiplex - TTM 080
DYEAR=1900
DGENRE=
TTITLE0=Jennifer Hanson - Beautiful Goodbye
TTITLE1=Kelly Willis - If I Left You
TTITLE2=Elizabeth Cook - Stupid Things
TTITLE3=Dixie Chicks - Tortured Tangled Hearts
TTITLE4=Pinmonkey - I Drove All Night
TTITLE5=Terri Clark - I Just Wanna Be Mad
TTITLE6=Tracy Byrd - Lately (Been Thinkin About)
TTITLE7=Great Divide - Lost In The Night
TTITLE8=Faith Hill - When The Lights Go Down
TTITLE9=Jennifer Hanson - Beautiful Goodbye (vocals)
TTITLE10=Kelly Willis - If I Left You (vocals)
TTITLE11=Elizabeth Cook - Stupid Things (vocals)
TTITLE12=Dixie Chicks - Tortured Tangled Hearts (vocals)
TTITLE13=Pinmonkey - I Drove All Night (vocals)
TTITLE14=Terri Clark - I Just Wanna Be Mad (vocals)
TTITLE15=Tracy Byrd - Lately (Been Thinkin About) (vocals)
TTITLE16=Great Divide - Lost In The Night (vocals)
TTITLE17=Faith Hill - When The Lights Go Down (vocals)
TTITLE18=Top Tunes - Data Track
EXTD=
EXTT0=
EXTT1=
EXTT2=
EXTT3=
EXTT4=
EXTT5=
EXTT6=
EXTT7=
EXTT8=
EXTT9=
EXTT10=
EXTT11=
EXTT12=
EXTT13=
EXTT14=
EXTT15=
EXTT16=
EXTT17=
EXTT18=
PLAYORDER=
